<?xml version="1.0" encoding="UTF-8"?>
<svg id="Layer_1" data-name="Layer 1" xmlns="http://www.w3.org/2000/svg" viewBox="0 0 355.5 308">
  <defs>
    <style>
      .cls-1 {
        fill: #fff;
        stroke-width: 0px;
      }
    </style>
  </defs>
  <path class="cls-1" d="M242.71,169.83c-6.68,33.16-30.19,61.98-62.65,73.39-39.45,13.87-82.82,1.68-109.48-30.64-25.75-31.2-28.45-77.61-7.36-112.32,20.42-33.61,60.67-52.15,99.22-45.75.34-.23,6.44-4.5,6.09-11.99-.31-6.69-5.52-10.32-6.09-10.71-10.77-1.35-33.31-2.64-59.12,7.3-18.71,7.2-35.67,18.97-48.65,34.69-32.36,39.22-37.47,95.82-10.88,139.59,26.33,43.34,77.72,65.43,127.32,55.61,47.86-9.48,86.96-49.97,94.37-98.25.05-.31.08-.61.13-.92h-22.9Z"/>
  <path class="cls-1" d="M339.47,163.37h-47.8c-12.65,0-25.34.31-37.98-.08-8.68-.27-17.21-1.37-25.53-3.86-5.22-1.56-10.29-3.47-15.73-4.13-6.31-.77-11.63.67-16.6,3.03-1.4-1.16-3.19-1.85-5.15-1.85-4.47,0-8.09,3.62-8.09,8.09,0,.51.05,1,.14,1.48-3.29,2.02-6.67,3.93-10.36,5.34-5.78,2.21-13.86,4.41-19.26.23-4.53-3.51-7.26-9.32-9.59-14.4-1.4-3.05-3.44-9.35-6.11-16.31,1.19-1.41,1.9-3.22,1.9-5.21,0-4.34-3.42-7.86-7.7-8.07-2.8-5.45-6.01-10.27-9.63-13.09-.79-3.64-4.02-6.36-7.9-6.36-4.47,0-8.09,3.62-8.09,8.09,0,.05,0,.1,0,.15-9.34,9.05-12.12,25.45-14.46,37.59-1.19,6.18-2.18,12.42-2.97,18.68-3.66.77-6.41,4.02-6.41,7.91,0,4.47,3.62,8.09,8.09,8.09s8.09-3.62,8.09-8.09c0-2.3-.96-4.37-2.5-5.84.61-5.03,1.37-10.04,2.25-15.02,2.05-11.59,4.3-24.64,10.67-34.77.36-.57.76-1.17,1.2-1.76,1.21.72,2.61,1.14,4.12,1.14,2.15,0,4.09-.84,5.54-2.21,2.11,2.21,3.62,5.51,4.74,7.78.15.29.28.59.43.89-1.03,1.36-1.65,3.05-1.65,4.88,0,4.1,3.06,7.49,7.02,8.01,2.73,7.26,5.3,14.59,8.91,21.47,2.51,4.78,5.62,9.54,10.03,12.77,5.28,3.85,11.31,3.8,17.56,2.75,7.54-1.27,14.22-4.77,20.6-8.8,1.03.48,2.18.76,3.4.76,4.37,0,7.93-3.48,8.07-7.82,2.97-1.43,6.11-2.4,9.56-2.35,5.11.08,9.88,1.66,14.7,3.2,6.75,2.15,13.55,3.65,20.6,4.42,15.4,1.68,31.17.77,46.65.77h49.2c4.83,0,4.83-7.5,0-7.5Z"/>
</svg>