<?xml version="1.0" encoding="UTF-8"?>
<svg id="Layer_2" data-name="Layer 2" xmlns="http://www.w3.org/2000/svg" viewBox="0 0 762 479">
  <defs>
    <style>
      .cls-1 {
        fill: #fff;
        stroke-width: 0px;
      }
    </style>
  </defs>
  <path class="cls-1" d="M292.29,259.21c-6.68,33.16-30.19,61.97-62.64,73.38-39.45,13.87-82.81,1.68-109.48-30.64-25.75-31.2-28.45-77.61-7.36-112.32,20.42-33.61,60.67-52.15,99.21-45.75.34-.23,6.44-4.5,6.09-11.98-.31-6.69-5.52-10.32-6.09-10.71-10.77-1.35-33.31-2.64-59.12,7.3-18.71,7.2-35.67,18.96-48.64,34.69-32.36,39.21-37.47,95.82-10.88,139.58,26.33,43.34,77.72,65.43,127.31,55.61,47.85-9.48,86.95-49.97,94.37-98.24.05-.31.08-.61.13-.92h-22.9Z"/>
  <path class="cls-1" d="M389.03,252.75h-47.8c-12.65,0-25.34.31-37.98-.08-8.68-.27-17.2-1.37-25.53-3.86-5.22-1.56-10.28-3.47-15.73-4.13-6.31-.77-11.63.67-16.6,3.03-1.4-1.16-3.19-1.85-5.15-1.85-4.47,0-8.08,3.62-8.08,8.08,0,.51.05,1,.14,1.48-3.29,2.02-6.67,3.93-10.36,5.34-5.78,2.21-13.86,4.41-19.25.23-4.53-3.51-7.26-9.32-9.59-14.4-1.4-3.05-3.44-9.35-6.11-16.31,1.19-1.41,1.9-3.22,1.9-5.21,0-4.34-3.41-7.86-7.7-8.07-2.8-5.45-6.01-10.26-9.63-13.09-.79-3.64-4.02-6.36-7.9-6.36-4.47,0-8.08,3.62-8.08,8.08,0,.05,0,.1,0,.15-9.34,9.05-12.12,25.45-14.46,37.59-1.19,6.18-2.18,12.42-2.97,18.68-3.66.77-6.41,4.02-6.41,7.91,0,4.47,3.62,8.08,8.08,8.08s8.08-3.62,8.08-8.08c0-2.3-.96-4.37-2.5-5.84.61-5.03,1.37-10.04,2.25-15.02,2.05-11.59,4.3-24.64,10.67-34.77.36-.57.76-1.17,1.2-1.76,1.21.72,2.61,1.14,4.12,1.14,2.15,0,4.09-.84,5.54-2.21,2.11,2.21,3.62,5.51,4.74,7.78.15.29.28.59.43.89-1.03,1.36-1.65,3.05-1.65,4.88,0,4.1,3.06,7.49,7.02,8.01,2.73,7.26,5.3,14.59,8.91,21.47,2.51,4.78,5.62,9.54,10.03,12.77,5.28,3.85,11.31,3.8,17.56,2.75,7.54-1.27,14.22-4.77,20.6-8.8,1.03.48,2.18.76,3.4.76,4.37,0,7.93-3.48,8.07-7.82,2.97-1.43,6.11-2.4,9.56-2.35,5.11.08,9.88,1.66,14.7,3.2,6.75,2.15,13.55,3.65,20.6,4.42,15.4,1.68,31.16.77,46.65.77h49.2c4.83,0,4.83-7.5,0-7.5Z"/>
  <g>
    <path class="cls-1" d="M326.24,168.79h4.84v39.96c0,5.39-1.56,9.69-4.67,12.89-3.11,3.2-7.29,4.8-12.52,4.8-5.52,0-9.77-1.45-12.73-4.34s-4.45-6.93-4.45-12.11h4.8c0,4.12,1.08,7.21,3.24,9.28,2.16,2.07,5.21,3.11,9.14,3.11,3.62,0,6.57-1.2,8.85-3.59,2.28-2.4,3.44-5.65,3.5-9.77v-40.23Z"/>
    <path class="cls-1" d="M341.48,203.9c0-4.06.79-7.72,2.36-10.98,1.57-3.25,3.8-5.79,6.68-7.6,2.88-1.81,6.14-2.71,9.79-2.71,5.62,0,10.18,1.97,13.67,5.92,3.49,3.95,5.23,9.17,5.23,15.68v.98c0,4.09-.79,7.77-2.36,11.04-1.58,3.27-3.8,5.79-6.66,7.56-2.87,1.77-6.13,2.66-9.8,2.66-5.6,0-10.15-1.97-13.65-5.92-3.5-3.95-5.25-9.17-5.25-15.68v-.94ZM346.16,205.19c0,5.05,1.31,9.2,3.93,12.44s6.05,4.86,10.29,4.86,7.64-1.62,10.25-4.86,3.93-7.52,3.93-12.83v-.9c0-3.23-.6-6.18-1.8-8.87-1.2-2.68-2.88-4.76-5.04-6.23-2.16-1.47-4.64-2.21-7.42-2.21-4.17,0-7.57,1.63-10.2,4.9-2.63,3.27-3.95,7.55-3.95,12.83v.86Z"/>
    <path class="cls-1" d="M414.17,214.92c0-2.32-.93-4.18-2.79-5.59-1.86-1.41-4.67-2.51-8.42-3.3-3.75-.79-6.66-1.71-8.73-2.73-2.07-1.03-3.61-2.29-4.61-3.77-1-1.48-1.5-3.28-1.5-5.39,0-3.33,1.39-6.09,4.18-8.26,2.79-2.17,6.35-3.26,10.7-3.26,4.71,0,8.5,1.17,11.35,3.5,2.85,2.33,4.28,5.37,4.28,9.12h-4.69c0-2.47-1.04-4.53-3.11-6.17s-4.68-2.46-7.83-2.46-5.54.68-7.4,2.05c-1.86,1.37-2.79,3.14-2.79,5.33s.77,3.74,2.32,4.9c1.55,1.16,4.38,2.22,8.48,3.18,4.1.96,7.17,1.99,9.22,3.09,2.04,1.09,3.56,2.41,4.55,3.95.99,1.54,1.48,3.4,1.48,5.59,0,3.57-1.44,6.42-4.32,8.55-2.88,2.14-6.63,3.2-11.27,3.2-4.92,0-8.91-1.19-11.97-3.57-3.06-2.38-4.59-5.4-4.59-9.04h4.69c.18,2.73,1.33,4.86,3.46,6.39,2.12,1.52,4.93,2.29,8.42,2.29,3.25,0,5.88-.72,7.89-2.15,2-1.43,3.01-3.24,3.01-5.43Z"/>
    <path class="cls-1" d="M445.73,226.44c-3.59,0-6.84-.88-9.75-2.66-2.9-1.77-5.16-4.24-6.78-7.4-1.62-3.16-2.42-6.71-2.42-10.64v-1.68c0-4.06.79-7.72,2.36-10.98,1.57-3.25,3.77-5.81,6.58-7.68,2.81-1.86,5.86-2.79,9.14-2.79,5.13,0,9.2,1.75,12.21,5.25,3.01,3.5,4.51,8.29,4.51,14.36v2.62h-30.16v.9c0,4.79,1.37,8.78,4.12,11.97,2.75,3.19,6.2,4.79,10.37,4.79,2.5,0,4.71-.46,6.62-1.37,1.91-.91,3.65-2.37,5.21-4.38l2.93,2.23c-3.44,4.97-8.43,7.46-14.96,7.46ZM444.88,186.6c-3.52,0-6.48,1.29-8.89,3.87-2.41,2.58-3.88,6.04-4.39,10.39h25.35v-.51c-.13-4.06-1.29-7.37-3.48-9.92-2.19-2.55-5.05-3.83-8.59-3.83ZM450.07,165.66h5.66l-9.02,10.94-4.1-.02,7.46-10.92Z"/>
    <path class="cls-1" d="M522.57,199.06h-26.52v26.6h-4.8v-56.88h35.23v4.06h-30.43v22.15h26.52v4.06Z"/>
    <path class="cls-1" d="M551.52,226.44c-3.59,0-6.84-.88-9.75-2.66-2.9-1.77-5.16-4.24-6.78-7.4-1.62-3.16-2.42-6.71-2.42-10.64v-1.68c0-4.06.79-7.72,2.36-10.98,1.57-3.25,3.77-5.81,6.58-7.68,2.81-1.86,5.86-2.79,9.14-2.79,5.13,0,9.2,1.75,12.21,5.25,3.01,3.5,4.51,8.29,4.51,14.36v2.62h-30.16v.9c0,4.79,1.37,8.78,4.12,11.97,2.75,3.19,6.2,4.79,10.37,4.79,2.5,0,4.71-.46,6.62-1.37,1.91-.91,3.65-2.37,5.21-4.38l2.93,2.23c-3.44,4.97-8.43,7.46-14.96,7.46ZM550.66,186.6c-3.52,0-6.48,1.29-8.89,3.87-2.41,2.58-3.88,6.04-4.39,10.39h25.35v-.51c-.13-4.06-1.29-7.37-3.48-9.92-2.19-2.55-5.05-3.83-8.59-3.83Z"/>
    <path class="cls-1" d="M596.01,187.38c-.99-.18-2.04-.27-3.16-.27-2.92,0-5.38.81-7.4,2.44-2.02,1.63-3.46,3.99-4.32,7.09v29.02h-4.65v-42.27h4.57l.08,6.72c2.47-5,6.45-7.5,11.91-7.5,1.3,0,2.33.17,3.09.51l-.12,4.26Z"/>
    <path class="cls-1" d="M607.65,183.39l.16,6.88c1.56-2.55,3.52-4.47,5.86-5.74,2.34-1.28,4.95-1.91,7.81-1.91,6.67,0,10.9,2.73,12.7,8.2,1.51-2.63,3.53-4.65,6.05-6.07,2.53-1.42,5.31-2.13,8.36-2.13,9.06,0,13.68,4.95,13.87,14.84v28.2h-4.69v-27.85c-.03-3.78-.84-6.58-2.44-8.4-1.6-1.82-4.21-2.73-7.83-2.73-3.36.05-6.2,1.14-8.52,3.26-2.32,2.12-3.61,4.71-3.87,7.75v27.97h-4.69v-28.2c-.03-3.62-.88-6.32-2.56-8.11-1.68-1.78-4.27-2.68-7.75-2.68-2.94,0-5.47.84-7.58,2.52s-3.67,4.17-4.69,7.48v28.98h-4.69v-42.27h4.49Z"/>
    <path class="cls-1" d="M674.02,171.19c0-.88.29-1.62.86-2.23.57-.61,1.35-.91,2.34-.91s1.78.3,2.36.91.88,1.35.88,2.23-.29,1.62-.88,2.21c-.59.6-1.38.89-2.36.89s-1.77-.3-2.34-.89c-.57-.6-.86-1.33-.86-2.21ZM679.52,225.66h-4.69v-42.27h4.69v42.27Z"/>
  </g>
  <g>
    <path class="cls-1" d="M541.03,255.42c-.27,2.93-1.28,5.18-3.03,6.75-1.74,1.57-4.11,2.35-7.11,2.35-2.02,0-3.8-.51-5.36-1.53-1.55-1.02-2.76-2.47-3.62-4.36s-1.29-4.03-1.31-6.46v-4.39c0-2.42.42-4.59,1.27-6.49.85-1.91,2.05-3.38,3.62-4.42,1.57-1.04,3.37-1.56,5.4-1.56,2.97,0,5.33.78,7.09,2.34s2.77,3.8,3.05,6.72h-1.05c-.3-2.62-1.21-4.61-2.73-5.97-1.52-1.36-3.64-2.04-6.35-2.04s-4.99,1.04-6.69,3.12c-1.7,2.08-2.55,4.88-2.55,8.38v4.18c0,2.24.38,4.22,1.13,5.95.76,1.73,1.84,3.07,3.25,4.03,1.41.96,3.03,1.45,4.85,1.45,2.72,0,4.85-.67,6.38-2.01,1.53-1.34,2.43-3.35,2.71-6.04h1.05Z"/>
    <path class="cls-1" d="M545.46,253.15c0-2.02.39-3.83,1.16-5.44.78-1.61,1.87-2.86,3.28-3.76,1.41-.9,3.01-1.35,4.79-1.35s3.36.44,4.77,1.31c1.41.87,2.5,2.11,3.29,3.71.79,1.6,1.19,3.41,1.2,5.41v.94c0,2.03-.38,3.85-1.15,5.45-.77,1.6-1.86,2.85-3.27,3.75-1.41.9-3.01,1.35-4.79,1.35s-3.38-.44-4.79-1.33c-1.41-.89-2.51-2.13-3.29-3.72s-1.18-3.39-1.19-5.38v-.94ZM546.52,253.98c0,1.76.35,3.37,1.04,4.83.7,1.46,1.67,2.61,2.91,3.43,1.24.82,2.67,1.23,4.27,1.23,2.41,0,4.37-.91,5.89-2.71,1.52-1.81,2.28-4.14,2.28-6.99v-.61c0-1.73-.35-3.33-1.05-4.8-.7-1.47-1.68-2.62-2.92-3.45-1.24-.83-2.65-1.24-4.23-1.24-2.41,0-4.38.92-5.9,2.75s-2.29,4.15-2.29,6.93v.62Z"/>
    <path class="cls-1" d="M570.13,247.92c.69-1.64,1.71-2.94,3.05-3.89,1.34-.95,2.83-1.43,4.45-1.43,2.27,0,3.95.64,5.05,1.92,1.1,1.28,1.66,3.22,1.67,5.81v13.79h-1.05v-13.81c-.01-2.26-.47-3.94-1.39-5.02-.91-1.09-2.36-1.63-4.34-1.63-1.82,0-3.4.65-4.74,1.94-1.33,1.29-2.24,2.96-2.71,5v13.52h-1.05v-21.13h1.05v4.92Z"/>
    <path class="cls-1" d="M604,258.96c0-2.57-2.19-4.31-6.56-5.23-2.63-.56-4.46-1.28-5.49-2.16-1.03-.88-1.54-2.09-1.54-3.62s.65-2.83,1.96-3.83c1.31-1,3.01-1.5,5.11-1.5,2.28,0,4.11.54,5.49,1.63,1.38,1.09,2.07,2.56,2.07,4.4h-1.07c0-1.42-.6-2.6-1.8-3.55-1.2-.95-2.76-1.43-4.69-1.43s-3.31.4-4.39,1.21c-1.08.81-1.62,1.82-1.62,3.03,0,.95.2,1.7.61,2.24.4.54,1.06,1.03,1.97,1.46.91.44,2.24.86,3.98,1.26,1.75.4,3.12.88,4.14,1.43s1.75,1.19,2.21,1.94c.46.75.68,1.66.68,2.74,0,1.67-.68,3.01-2.05,4.02s-3.16,1.52-5.37,1.52c-2.37,0-4.28-.54-5.73-1.61-1.45-1.07-2.18-2.46-2.18-4.15h1.05c.11,1.48.76,2.64,1.96,3.47,1.21.83,2.84,1.24,4.89,1.24,1.89,0,3.42-.44,4.6-1.32,1.18-.88,1.77-1.94,1.77-3.19Z"/>
    <path class="cls-1" d="M625.03,264.13v-3.42c-.62,1.17-1.54,2.1-2.73,2.78-1.2.68-2.71,1.03-4.55,1.03-2.3,0-4.03-.67-5.19-2.02s-1.74-3.31-1.77-5.89v-13.61h1.05v13.65c.03,2.24.54,3.94,1.52,5.09.99,1.15,2.44,1.73,4.34,1.73,2.02,0,3.66-.48,4.92-1.43,1.26-.95,2.06-2.34,2.4-4.18v-14.86h1.07v21.13h-1.07Z"/>
    <path class="cls-1" d="M634.07,264.13h-1.05v-30h1.05v30Z"/>
    <path class="cls-1" d="M643.37,237.3v5.7h4.8v1.05h-4.8v15.01c0,1.5.24,2.61.73,3.32s1.31,1.08,2.45,1.08c.57,0,1.27-.06,2.09-.18l.18,1c-.43.16-1.16.23-2.21.23-1.54,0-2.64-.43-3.3-1.28s-1-2.2-1.02-4.04v-15.15h-3.91v-1.05h3.91v-5.7h1.07Z"/>
    <path class="cls-1" d="M651.67,253.15c0-2.02.39-3.83,1.16-5.44.78-1.61,1.87-2.86,3.28-3.76,1.41-.9,3.01-1.35,4.79-1.35s3.36.44,4.77,1.31c1.41.87,2.5,2.11,3.29,3.71.79,1.6,1.19,3.41,1.2,5.41v.94c0,2.03-.38,3.85-1.15,5.45-.77,1.6-1.86,2.85-3.27,3.75-1.41.9-3.01,1.35-4.79,1.35s-3.38-.44-4.79-1.33c-1.41-.89-2.51-2.13-3.29-3.72s-1.18-3.39-1.19-5.38v-.94ZM652.73,253.98c0,1.76.35,3.37,1.04,4.83.7,1.46,1.67,2.61,2.91,3.43,1.24.82,2.67,1.23,4.27,1.23,2.41,0,4.37-.91,5.89-2.71,1.52-1.81,2.28-4.14,2.28-6.99v-.61c0-1.73-.35-3.33-1.05-4.8-.7-1.47-1.68-2.62-2.92-3.45-1.24-.83-2.65-1.24-4.23-1.24-2.41,0-4.38.92-5.9,2.75s-2.29,4.15-2.29,6.93v.62Z"/>
    <path class="cls-1" d="M684.6,243.78l-1.37-.12c-1.8,0-3.3.58-4.51,1.75-1.21,1.16-2,2.79-2.38,4.89v13.83h-1.05v-21.13h1.05v4.39c.57-1.47,1.43-2.64,2.58-3.5,1.15-.86,2.59-1.29,4.32-1.29.61,0,1.11.07,1.48.22l-.12.95Z"/>
  </g>
</svg>