<?xml version="1.0" encoding="UTF-8"?>
<svg id="Layer_1" data-name="Layer 1" xmlns="http://www.w3.org/2000/svg" viewBox="0 0 762 479">
  <defs>
    <style>
      .cls-1 {
        fill: #fff;
        stroke-width: 0px;
      }
    </style>
  </defs>
  <g>
    <path class="cls-1" d="M112.48,183.88h8.04v66.36c0,8.95-2.58,16.09-7.75,21.41-5.17,5.32-12.1,7.98-20.79,7.98-9.17,0-16.22-2.4-21.15-7.2-4.93-4.8-7.39-11.5-7.39-20.11h7.98c0,6.83,1.79,11.97,5.38,15.41,3.59,3.44,8.65,5.16,15.18,5.16,6.01,0,10.91-1.99,14.69-5.97,3.78-3.98,5.72-9.38,5.81-16.22v-66.81Z"/>
    <path class="cls-1" d="M137.78,242.19c0-6.75,1.31-12.82,3.92-18.23,2.62-5.41,6.31-9.61,11.09-12.62,4.78-3,10.19-4.51,16.25-4.51,9.34,0,16.91,3.28,22.7,9.83,5.79,6.55,8.69,15.23,8.69,26.04v1.62c0,6.79-1.31,12.9-3.92,18.33-2.62,5.43-6.3,9.61-11.06,12.55-4.76,2.94-10.18,4.41-16.28,4.41-9.3,0-16.86-3.28-22.67-9.83-5.82-6.55-8.72-15.23-8.72-26.04v-1.56ZM145.56,244.33c0,8.39,2.17,15.28,6.52,20.66,4.35,5.38,10.04,8.08,17.09,8.08s12.68-2.69,17.03-8.08c4.35-5.38,6.52-12.49,6.52-21.31v-1.49c0-5.36-1-10.27-2.98-14.72-1.99-4.45-4.78-7.9-8.37-10.35-3.59-2.44-7.7-3.67-12.33-3.67-6.92,0-12.56,2.71-16.93,8.14-4.37,5.43-6.55,12.53-6.55,21.31v1.43Z"/>
    <path class="cls-1" d="M258.5,260.48c0-3.85-1.55-6.94-4.64-9.28-3.09-2.33-7.75-4.16-13.98-5.48-6.23-1.32-11.06-2.83-14.5-4.54-3.44-1.71-5.99-3.79-7.65-6.26s-2.5-5.45-2.5-8.95c0-5.54,2.31-10.11,6.94-13.72,4.63-3.61,10.55-5.42,17.77-5.42,7.83,0,14.11,1.94,18.84,5.81s7.1,8.92,7.1,15.15h-7.78c0-4.11-1.72-7.52-5.16-10.25-3.44-2.72-7.77-4.09-13.01-4.09s-9.2,1.13-12.29,3.41-4.64,5.22-4.64,8.85,1.29,6.22,3.86,8.14c2.57,1.92,7.27,3.69,14.08,5.29,6.81,1.6,11.91,3.31,15.31,5.12,3.39,1.82,5.91,4,7.56,6.55,1.64,2.55,2.46,5.64,2.46,9.28,0,5.92-2.39,10.66-7.17,14.21-4.78,3.55-11.02,5.32-18.71,5.32-8.17,0-14.8-1.98-19.88-5.93-5.08-3.96-7.62-8.96-7.62-15.02h7.78c.3,4.54,2.21,8.08,5.74,10.61,3.52,2.53,8.18,3.79,13.98,3.79,5.41,0,9.77-1.19,13.1-3.57,3.33-2.38,5-5.38,5-9.02Z"/>
    <path class="cls-1" d="M310.91,279.62c-5.97,0-11.36-1.47-16.18-4.41-4.82-2.94-8.57-7.04-11.25-12.29-2.68-5.25-4.02-11.15-4.02-17.68v-2.79c0-6.75,1.31-12.82,3.92-18.23,2.62-5.41,6.26-9.65,10.93-12.75,4.67-3.09,9.73-4.64,15.18-4.64,8.52,0,15.28,2.91,20.27,8.72,5,5.82,7.49,13.76,7.49,23.84v4.35h-50.08v1.49c0,7.96,2.28,14.58,6.84,19.88,4.56,5.3,10.3,7.95,17.22,7.95,4.15,0,7.82-.76,11-2.27s6.06-3.93,8.66-7.27l4.87,3.7c-5.71,8.26-13.99,12.39-24.84,12.39ZM309.48,213.46c-5.84,0-10.76,2.14-14.76,6.42-4,4.28-6.43,10.03-7.3,17.25h42.1v-.84c-.22-6.75-2.14-12.24-5.77-16.48-3.63-4.24-8.39-6.36-14.27-6.36ZM318.11,178.69h9.41l-14.98,18.16-6.81-.03,12.39-18.13Z"/>
    <path class="cls-1" d="M438.5,234.15h-44.04v44.17h-7.98v-94.45h58.51v6.75h-50.53v36.78h44.04v6.75Z"/>
    <path class="cls-1" d="M486.57,279.62c-5.97,0-11.36-1.47-16.18-4.41-4.82-2.94-8.57-7.04-11.25-12.29-2.68-5.25-4.02-11.15-4.02-17.68v-2.79c0-6.75,1.31-12.82,3.92-18.23,2.62-5.41,6.26-9.65,10.93-12.75,4.67-3.09,9.73-4.64,15.18-4.64,8.52,0,15.28,2.91,20.27,8.72,5,5.82,7.49,13.76,7.49,23.84v4.35h-50.08v1.49c0,7.96,2.28,14.58,6.84,19.88,4.56,5.3,10.3,7.95,17.22,7.95,4.15,0,7.82-.76,11-2.27s6.06-3.93,8.66-7.27l4.87,3.7c-5.71,8.26-13.99,12.39-24.84,12.39ZM485.14,213.46c-5.84,0-10.76,2.14-14.76,6.42-4,4.28-6.43,10.03-7.3,17.25h42.1v-.84c-.22-6.75-2.14-12.24-5.77-16.48-3.63-4.24-8.39-6.36-14.27-6.36Z"/>
    <path class="cls-1" d="M560.45,214.75c-1.64-.3-3.4-.45-5.25-.45-4.84,0-8.94,1.35-12.29,4.05-3.35,2.7-5.74,6.63-7.17,11.77v48.2h-7.72v-70.19h7.59l.13,11.16c4.11-8.3,10.7-12.45,19.78-12.45,2.16,0,3.87.28,5.12.84l-.19,7.07Z"/>
    <path class="cls-1" d="M579.78,208.14l.26,11.42c2.59-4.24,5.84-7.42,9.73-9.54,3.89-2.12,8.22-3.18,12.97-3.18,11.07,0,18.1,4.54,21.08,13.62,2.51-4.37,5.86-7.73,10.05-10.09,4.19-2.36,8.82-3.54,13.88-3.54,15.05,0,22.72,8.22,23.03,24.65v46.83h-7.78v-46.25c-.04-6.27-1.39-10.92-4.05-13.95-2.66-3.03-7-4.54-13.01-4.54-5.58.09-10.29,1.89-14.14,5.42-3.85,3.53-5.99,7.82-6.42,12.88v46.45h-7.78v-46.83c-.04-6.01-1.46-10.5-4.25-13.46-2.79-2.96-7.08-4.44-12.88-4.44-4.89,0-9.08,1.39-12.58,4.18s-6.1,6.93-7.78,12.42v48.13h-7.78v-70.19h7.46Z"/>
    <path class="cls-1" d="M689.99,187.87c0-1.46.48-2.7,1.43-3.71.95-1.01,2.25-1.51,3.89-1.51s2.95.51,3.92,1.51c.97,1.01,1.46,2.25,1.46,3.71s-.49,2.69-1.46,3.67c-.97.99-2.28,1.48-3.92,1.48s-2.94-.49-3.89-1.48c-.95-.99-1.43-2.21-1.43-3.67ZM699.14,278.32h-7.78v-70.19h7.78v70.19Z"/>
  </g>
  <g>
    <path class="cls-1" d="M454.01,327.77c-.49,5.2-2.28,9.19-5.38,11.98-3.1,2.79-7.3,4.18-12.62,4.18-3.58,0-6.75-.91-9.52-2.72-2.76-1.81-4.91-4.39-6.43-7.73s-2.3-7.16-2.32-11.46v-7.8c0-4.3.75-8.14,2.25-11.53s3.65-6,6.43-7.85c2.78-1.85,5.98-2.77,9.58-2.77,5.27,0,9.46,1.39,12.59,4.16,3.12,2.77,4.92,6.75,5.41,11.93h-1.87c-.53-4.65-2.15-8.18-4.85-10.59-2.7-2.42-6.46-3.62-11.27-3.62s-8.86,1.85-11.87,5.55c-3.02,3.7-4.52,8.66-4.52,14.87v7.42c0,3.98.67,7.49,2.01,10.56,1.34,3.06,3.27,5.45,5.77,7.16,2.51,1.71,5.38,2.57,8.61,2.57,4.83,0,8.6-1.19,11.32-3.57,2.71-2.38,4.32-5.95,4.8-10.71h1.87Z"/>
    <path class="cls-1" d="M461.88,323.75c0-3.58.69-6.8,2.06-9.66,1.38-2.85,3.32-5.08,5.82-6.67s5.34-2.39,8.51-2.39,5.96.77,8.46,2.32,4.44,3.74,5.84,6.59,2.11,6.04,2.13,9.6v1.66c0,3.61-.68,6.83-2.04,9.67-1.37,2.84-3.3,5.06-5.81,6.66-2.51,1.6-5.35,2.39-8.51,2.39s-6-.79-8.51-2.36c-2.51-1.57-4.46-3.77-5.84-6.6-1.39-2.83-2.09-6.01-2.11-9.55v-1.66ZM463.75,325.21c0,3.12.62,5.98,1.86,8.58,1.24,2.6,2.96,4.63,5.17,6.08,2.21,1.46,4.73,2.18,7.57,2.18,4.28,0,7.76-1.61,10.45-4.82,2.69-3.21,4.04-7.35,4.04-12.41v-1.08c0-3.07-.62-5.92-1.87-8.53-1.25-2.61-2.98-4.65-5.18-6.12-2.21-1.47-4.71-2.2-7.51-2.2-4.28,0-7.77,1.63-10.47,4.89-2.71,3.26-4.06,7.36-4.06,12.31v1.11Z"/>
    <path class="cls-1" d="M505.66,314.46c1.22-2.91,3.03-5.21,5.41-6.9s5.02-2.53,7.9-2.53c4.02,0,7.01,1.14,8.96,3.42,1.95,2.28,2.94,5.71,2.96,10.31v24.48h-1.87v-24.52c-.02-4.02-.84-6.99-2.46-8.92-1.62-1.93-4.18-2.89-7.7-2.89-3.24,0-6.04,1.15-8.41,3.45-2.37,2.3-3.97,5.26-4.8,8.88v24h-1.87v-37.51h1.87v8.74Z"/>
    <path class="cls-1" d="M565.78,334.05c0-4.55-3.88-7.65-11.65-9.29-4.67-.99-7.92-2.27-9.74-3.83-1.83-1.56-2.74-3.7-2.74-6.43s1.16-5.02,3.48-6.79c2.32-1.78,5.35-2.67,9.07-2.67,4.04,0,7.29.97,9.74,2.89,2.45,1.93,3.67,4.54,3.67,7.82h-1.91c0-2.52-1.06-4.62-3.19-6.31s-4.9-2.53-8.32-2.53-5.88.72-7.8,2.15c-1.92,1.43-2.88,3.22-2.88,5.37,0,1.69.36,3.01,1.07,3.97.72.96,1.88,1.83,3.5,2.6s3.97,1.52,7.07,2.24,5.55,1.56,7.35,2.53,3.11,2.12,3.92,3.45c.81,1.33,1.21,2.95,1.21,4.87,0,2.96-1.21,5.34-3.64,7.14-2.43,1.8-5.6,2.7-9.53,2.7-4.21,0-7.6-.95-10.18-2.86-2.58-1.91-3.87-4.36-3.87-7.37h1.87c.18,2.63,1.35,4.69,3.48,6.15,2.14,1.47,5.03,2.2,8.68,2.2,3.35,0,6.07-.78,8.16-2.34,2.09-1.56,3.14-3.45,3.14-5.67Z"/>
    <path class="cls-1" d="M603.12,343.23v-6.07c-1.11,2.08-2.73,3.73-4.85,4.94-2.13,1.21-4.82,1.82-8.08,1.82-4.09,0-7.16-1.2-9.21-3.59-2.04-2.39-3.09-5.88-3.14-10.45v-24.16h1.87v24.23c.05,3.98.95,6.99,2.71,9.03,1.76,2.05,4.32,3.07,7.7,3.07,3.58,0,6.49-.84,8.74-2.53,2.24-1.69,3.66-4.16,4.27-7.42v-26.38h1.91v37.51h-1.91Z"/>
    <path class="cls-1" d="M619.16,343.23h-1.87v-53.25h1.87v53.25Z"/>
    <path class="cls-1" d="M635.67,295.6v10.12h8.53v1.87h-8.53v26.65c0,2.66.43,4.63,1.3,5.9.87,1.27,2.32,1.91,4.35,1.91,1.02,0,2.25-.1,3.71-.31l.31,1.77c-.76.28-2.07.42-3.92.42-2.73,0-4.68-.76-5.86-2.27-1.18-1.52-1.78-3.9-1.8-7.17v-26.89h-6.93v-1.87h6.93v-10.12h1.91Z"/>
    <path class="cls-1" d="M650.4,323.75c0-3.58.69-6.8,2.06-9.66,1.38-2.85,3.32-5.08,5.82-6.67s5.34-2.39,8.51-2.39,5.96.77,8.46,2.32,4.44,3.74,5.84,6.59,2.11,6.04,2.13,9.6v1.66c0,3.61-.68,6.83-2.04,9.67-1.37,2.84-3.3,5.06-5.81,6.66-2.51,1.6-5.35,2.39-8.51,2.39s-6-.79-8.51-2.36c-2.51-1.57-4.46-3.77-5.84-6.6-1.39-2.83-2.09-6.01-2.11-9.55v-1.66ZM652.27,325.21c0,3.12.62,5.98,1.86,8.58,1.24,2.6,2.96,4.63,5.17,6.08,2.21,1.46,4.73,2.18,7.57,2.18,4.28,0,7.76-1.61,10.45-4.82,2.69-3.21,4.04-7.35,4.04-12.41v-1.08c0-3.07-.62-5.92-1.87-8.53-1.25-2.61-2.98-4.65-5.18-6.12-2.21-1.47-4.71-2.2-7.51-2.2-4.28,0-7.77,1.63-10.47,4.89-2.71,3.26-4.06,7.36-4.06,12.31v1.11Z"/>
    <path class="cls-1" d="M708.85,307.11l-2.43-.21c-3.19,0-5.86,1.03-8.01,3.1-2.15,2.07-3.56,4.96-4.23,8.68v24.56h-1.87v-37.51h1.87v7.8c1.02-2.61,2.54-4.68,4.58-6.21,2.03-1.53,4.59-2.29,7.66-2.29,1.09,0,1.96.13,2.63.39l-.21,1.69Z"/>
  </g>
</svg>