<svg width="456" height="180" viewBox="0 0 456 180" fill="none" xmlns="http://www.w3.org/2000/svg">
<g clip-path="url(#clip0_6_3)">
<path d="M161.658 104.024C156.658 128.853 139.061 150.424 114.773 158.968C85.245 169.353 52.7907 160.225 32.8286 136.026C13.5551 112.665 11.5342 77.9152 27.3197 51.926C42.6038 26.7604 72.7304 12.8785 101.577 17.6706C101.831 17.4983 106.397 14.3012 106.135 8.70051C105.903 3.69136 102.004 0.973389 101.577 0.681375C93.5158 -0.32944 76.6449 -1.29533 57.3265 6.14727C43.3223 11.5383 30.628 20.3436 20.9202 32.1215C-3.30083 61.4875 -7.12559 103.867 12.7841 136.632C32.4918 169.083 70.9564 185.623 108.074 178.27C143.889 171.172 173.155 140.855 178.708 104.713C178.746 104.481 178.768 104.256 178.806 104.024H161.665H161.658Z" fill="#0E00D6"/>
<path d="M234.074 99.1872H198.296C188.828 99.1872 179.33 99.4193 169.869 99.1273C163.372 98.9251 156.995 98.1015 150.76 96.2371C146.853 95.0691 143.066 93.6389 138.986 93.1448C134.263 92.5682 130.281 93.6464 126.562 95.4135C125.514 94.5449 124.174 94.0283 122.707 94.0283C119.361 94.0283 116.659 96.7388 116.659 100.078C116.659 100.46 116.696 100.827 116.764 101.186C114.301 102.699 111.771 104.129 109.01 105.185C104.683 106.839 98.6355 108.487 94.6012 105.357C91.2105 102.729 89.1672 98.3785 87.4232 94.5749C86.3753 92.2912 84.8484 87.5741 82.8499 82.3627C83.7406 81.307 84.2721 79.9518 84.2721 78.4617C84.2721 75.2122 81.7197 72.5765 78.5087 72.4193C76.413 68.3386 74.0103 64.7371 71.3008 62.6181C70.7095 59.8927 68.2919 57.8561 65.3878 57.8561C62.042 57.8561 59.34 60.5666 59.34 63.906C59.34 63.9434 59.34 63.9809 59.34 64.0183C52.3491 70.7945 50.2683 83.074 48.5169 92.1639C47.6262 96.7912 46.8852 101.463 46.2939 106.151C43.5544 106.727 41.4961 109.161 41.4961 112.073C41.4961 115.42 44.2056 118.123 47.5439 118.123C50.8821 118.123 53.5916 115.413 53.5916 112.073C53.5916 110.351 52.8731 108.801 51.7204 107.701C52.177 103.934 52.7458 100.183 53.4045 96.4543C54.9389 87.7762 56.623 78.005 61.3908 70.4201C61.6603 69.9934 61.9597 69.5441 62.289 69.1023C63.1947 69.6414 64.2426 69.9559 65.3728 69.9559C66.982 69.9559 68.4341 69.327 69.5194 68.3012C71.0987 69.9559 72.2289 72.4268 73.0672 74.1265C73.1795 74.3436 73.2768 74.5682 73.3891 74.7929C72.6181 75.8112 72.1541 77.0765 72.1541 78.4468C72.1541 81.5166 74.4444 84.0549 77.4084 84.4443C79.4518 89.8802 81.3754 95.3686 84.0775 100.52C85.9562 104.099 88.2839 107.663 91.5848 110.082C95.5368 112.964 100.05 112.927 104.728 112.141C110.372 111.19 115.372 108.569 120.147 105.552C120.918 105.911 121.779 106.121 122.692 106.121C125.963 106.121 128.627 103.515 128.732 100.265C130.955 99.1947 133.305 98.4684 135.888 98.5058C139.712 98.5657 143.283 99.7488 146.89 100.902C151.943 102.512 157.032 103.635 162.309 104.211C173.836 105.469 185.632 104.788 197.226 104.788H234.052C237.667 104.788 237.667 99.1722 234.052 99.1722L234.074 99.1872Z" fill="url(#paint0_linear_6_3)"/>
<path d="M187.069 36.3145H190.692V66.2346C190.692 70.2704 189.524 73.49 187.196 75.886C184.869 78.282 181.74 79.48 177.825 79.48C173.694 79.48 170.513 78.3943 168.297 76.2305C166.082 74.0666 164.966 71.0416 164.966 67.1631H168.559C168.559 70.2479 169.367 72.5616 170.984 74.1115C172.601 75.6614 174.884 76.4401 177.825 76.4401C180.535 76.4401 182.743 75.5416 184.449 73.7521C186.156 71.9551 187.024 69.5216 187.069 66.4368V36.3145Z" fill="white"/>
<path d="M198.476 62.6032C198.476 59.5632 199.067 56.8228 200.242 54.3819C201.425 51.9484 203.087 50.0466 205.242 48.6913C207.398 47.3361 209.838 46.6622 212.57 46.6622C216.777 46.6622 220.19 48.1373 222.802 51.0948C225.414 54.0524 226.716 57.9609 226.716 62.8353V63.5691C226.716 66.6315 226.125 69.3869 224.95 71.8353C223.767 74.2837 222.113 76.1706 219.965 77.4958C217.817 78.8211 215.377 79.4875 212.63 79.4875C208.438 79.4875 205.033 78.0125 202.413 75.0549C199.793 72.0973 198.484 68.1889 198.484 63.3145V62.6107L198.476 62.6032ZM201.986 63.5691C201.986 67.3503 202.967 70.4576 204.928 72.8835C206.889 75.3095 209.456 76.5225 212.63 76.5225C215.804 76.5225 218.348 75.3095 220.302 72.8835C222.255 70.4576 223.243 67.2529 223.243 63.277V62.6032C223.243 60.1847 222.794 57.9759 221.896 55.9617C220.998 53.9551 219.741 52.3977 218.124 51.297C216.507 50.1963 214.658 49.6423 212.57 49.6423C209.449 49.6423 206.911 50.8627 204.935 53.3111C202.967 55.7596 201.979 58.9642 201.979 62.9176V63.5616L201.986 63.5691Z" fill="white"/>
<path d="M252.883 70.8544C252.883 69.1173 252.187 67.7246 250.795 66.6689C249.403 65.6132 247.3 64.7895 244.493 64.198C241.686 63.6065 239.508 62.9177 237.959 62.1539C236.409 61.3827 235.257 60.4393 234.508 59.3311C233.76 58.223 233.385 56.8752 233.385 55.2954C233.385 52.802 234.426 50.7355 236.514 49.1107C238.602 47.4859 241.267 46.6697 244.523 46.6697C248.048 46.6697 250.885 47.5458 253.018 49.2904C255.151 51.035 256.222 53.3112 256.222 56.119H252.711C252.711 54.2696 251.933 52.7271 250.384 51.4992C248.834 50.2712 246.881 49.6573 244.523 49.6573C242.165 49.6573 240.376 50.1664 238.984 51.1922C237.592 52.218 236.896 53.5433 236.896 55.183C236.896 56.8228 237.48 57.9834 238.632 58.8519C239.792 59.7205 241.911 60.5142 244.979 61.233C248.048 61.9518 250.346 62.723 251.881 63.5466C253.415 64.3702 254.545 65.3511 255.286 66.5042C256.027 67.6573 256.394 69.0499 256.394 70.6897C256.394 73.3628 255.316 75.4967 253.16 77.0915C251.005 78.6939 248.198 79.4875 244.725 79.4875C241.042 79.4875 238.056 78.5965 235.766 76.8145C233.475 75.0325 232.33 72.7712 232.33 70.0458H235.84C235.975 72.0899 236.836 73.6847 238.43 74.8303C240.025 75.9759 242.12 76.5449 244.732 76.5449C247.173 76.5449 249.134 76.0058 250.638 74.9351C252.142 73.8644 252.891 72.5092 252.891 70.8694L252.883 70.8544Z" fill="white"/>
<path d="M276.513 79.48C273.826 79.48 271.393 78.8211 269.215 77.4884C267.045 76.1631 265.353 74.3136 264.141 71.9476C262.928 69.5815 262.329 66.9235 262.329 63.9809V62.723C262.329 59.683 262.921 56.9426 264.096 54.5017C265.278 52.0682 266.918 50.1514 269.021 48.7513C271.124 47.3586 273.407 46.6622 275.862 46.6622C279.702 46.6622 282.748 47.9726 285.001 50.5932C287.254 53.2138 288.377 56.8003 288.377 61.3453V63.307H265.802V63.9809C265.802 67.5674 266.828 70.5549 268.886 72.9434C270.944 75.332 273.534 76.53 276.648 76.53C278.519 76.53 280.173 76.1855 281.603 75.5042C283.032 74.8228 284.335 73.7296 285.502 72.2246L287.696 73.8944C285.121 77.6157 281.393 79.48 276.498 79.48H276.513ZM275.869 49.6498C273.235 49.6498 271.019 50.6156 269.215 52.5474C267.412 54.4792 266.319 57.0699 265.93 60.327H284.904V59.9451C284.806 56.9052 283.938 54.4268 282.299 52.5175C280.66 50.6082 278.519 49.6498 275.869 49.6498ZM279.754 33.9709H283.991L277.239 42.1622L274.17 42.1473L279.754 33.9709Z" fill="white"/>
<path d="M334.019 58.9792H314.17V78.896H310.577V36.307H336.946V39.3469H314.17V55.9318H334.019V58.9717V58.9792Z" fill="white"/>
<path d="M355.688 79.48C353.001 79.48 350.568 78.8211 348.39 77.4884C346.22 76.1631 344.528 74.3136 343.315 71.9476C342.103 69.5815 341.504 66.9235 341.504 63.9809V62.723C341.504 59.683 342.095 56.9426 343.271 54.5017C344.453 52.0682 346.092 50.1514 348.196 48.7513C350.299 47.3586 352.582 46.6622 355.037 46.6622C358.876 46.6622 361.923 47.9725 364.176 50.5932C366.429 53.2138 367.551 56.8003 367.551 61.3453V63.307H344.977V63.9809C344.977 67.5674 346.003 70.5549 348.061 72.9434C350.119 75.3319 352.709 76.53 355.823 76.53C357.694 76.53 359.348 76.1855 360.778 75.5042C362.207 74.8228 363.51 73.7296 364.677 72.2246L366.87 73.8943C364.296 77.6156 360.568 79.48 355.673 79.48H355.688ZM355.044 49.6498C352.41 49.6498 350.194 50.6156 348.39 52.5474C346.586 54.4792 345.494 57.0699 345.104 60.327H364.078V59.9451C363.981 56.9052 363.113 54.4268 361.474 52.5175C359.835 50.6082 357.694 49.6498 355.044 49.6498Z" fill="white"/>
<path d="M388.988 50.2338C388.247 50.099 387.461 50.0316 386.623 50.0316C384.437 50.0316 382.596 50.6381 381.084 51.8586C379.572 53.079 378.494 54.8461 377.851 57.1672V78.896H374.37V47.2463H377.791L377.851 52.2779C379.699 48.5341 382.678 46.6622 386.765 46.6622C387.738 46.6622 388.509 46.7895 389.078 47.0441L388.988 50.2338Z" fill="white"/>
<path d="M397.7 47.2538L397.82 52.4052C398.988 50.4958 400.455 49.0582 402.206 48.1073C403.958 47.1489 405.911 46.6772 408.052 46.6772C413.044 46.6772 416.21 48.7213 417.558 52.817C418.688 50.8478 420.2 49.3353 422.086 48.2721C423.98 47.2088 426.061 46.6772 428.343 46.6772C435.125 46.6772 438.59 50.3835 438.725 57.7887V78.9035H435.215V58.0508C435.192 55.2205 434.586 53.124 433.388 51.7612C432.191 50.3985 430.237 49.7172 427.528 49.7172C425.013 49.7546 422.887 50.5707 421.15 52.1581C419.414 53.7454 418.448 55.6847 418.254 57.9609V78.9035H414.743V57.7887C414.721 55.0782 414.085 53.0566 412.827 51.7163C411.57 50.3835 409.639 49.7097 407.027 49.7097C404.826 49.7097 402.932 50.3386 401.353 51.5965C399.774 52.8544 398.606 54.7188 397.843 57.1972V78.896H394.332V47.2463H397.693L397.7 47.2538Z" fill="white"/>
<path d="M447.378 38.1115C447.378 37.4526 447.595 36.8985 448.021 36.4418C448.448 35.985 449.032 35.7604 449.773 35.7604C450.514 35.7604 451.105 35.985 451.539 36.4418C451.981 36.8985 452.198 37.4526 452.198 38.1115C452.198 38.7704 451.981 39.3245 451.539 39.7662C451.098 40.2155 450.514 40.4326 449.773 40.4326C449.032 40.4326 448.448 40.208 448.021 39.7662C447.595 39.3245 447.378 38.7704 447.378 38.1115ZM451.494 78.896H447.984V47.2463H451.494V78.896Z" fill="white"/>
<path d="M348.45 101.179C348.248 103.373 347.492 105.057 346.182 106.233C344.872 107.408 343.106 107.993 340.86 107.993C339.348 107.993 338.009 107.611 336.849 106.847C335.688 106.083 334.783 104.998 334.139 103.582C333.495 102.167 333.166 100.565 333.158 98.7454V95.4584C333.158 93.6464 333.473 92.0216 334.109 90.599C334.745 89.1689 335.643 88.0682 336.819 87.2895C337.994 86.5108 339.341 86.1215 340.86 86.1215C343.083 86.1215 344.85 86.7055 346.167 87.8735C347.484 89.0416 348.24 90.7188 348.45 92.9052H347.664C347.44 90.9434 346.758 89.4534 345.621 88.4351C344.483 87.4168 342.896 86.9077 340.868 86.9077C338.839 86.9077 337.133 87.6864 335.86 89.2438C334.588 90.8012 333.952 92.8977 333.952 95.5183V98.6481C333.952 100.325 334.236 101.808 334.798 103.103C335.359 104.398 336.175 105.402 337.23 106.121C338.286 106.839 339.498 107.206 340.86 107.206C342.896 107.206 344.491 106.705 345.636 105.701C346.781 104.698 347.455 103.193 347.664 101.179H348.45Z" fill="white"/>
<path d="M351.766 99.4867C351.766 97.9742 352.058 96.619 352.634 95.4135C353.21 94.208 354.034 93.2721 355.089 92.5982C356.145 91.9243 357.342 91.5874 358.674 91.5874C360.007 91.5874 361.189 91.9168 362.245 92.5682C363.3 93.2196 364.116 94.1481 364.707 95.3461C365.298 96.5441 365.598 97.8994 365.605 99.3969V100.101C365.605 101.621 365.321 102.983 364.745 104.181C364.168 105.379 363.352 106.315 362.297 106.989C361.242 107.663 360.044 108 358.712 108C357.38 108 356.182 107.671 355.127 107.004C354.071 106.338 353.248 105.409 352.664 104.219C352.08 103.028 351.781 101.681 351.773 100.191V99.4867H351.766ZM352.559 100.101C352.559 101.418 352.821 102.624 353.338 103.717C353.854 104.81 354.588 105.671 355.516 106.285C356.444 106.899 357.514 107.206 358.712 107.206C360.516 107.206 361.983 106.525 363.12 105.177C364.258 103.829 364.827 102.077 364.827 99.9434V99.4867C364.827 98.1914 364.565 96.9934 364.041 95.8927C363.517 94.792 362.784 93.931 361.855 93.3095C360.927 92.688 359.872 92.381 358.689 92.381C356.886 92.381 355.411 93.0699 354.273 94.4401C353.136 95.8103 352.559 97.5474 352.559 99.629V100.093V100.101Z" fill="white"/>
<path d="M370.231 95.5632C370.747 94.3353 371.511 93.3619 372.514 92.6506C373.517 91.9393 374.632 91.5799 375.845 91.5799C377.544 91.5799 378.801 92.0591 379.624 93.0175C380.448 93.9759 380.867 95.4284 380.874 97.3677V107.693H380.088V97.3527C380.081 95.6606 379.729 94.4027 379.048 93.594C378.367 92.7854 377.282 92.3735 375.8 92.3735C374.437 92.3735 373.255 92.8602 372.252 93.8261C371.256 94.792 370.575 96.0424 370.223 97.5699V107.693H369.438V91.8719H370.223V95.5557L370.231 95.5632Z" fill="white"/>
<path d="M395.582 103.829C395.582 101.905 393.943 100.602 390.672 99.9135C388.704 99.4942 387.334 98.9551 386.563 98.2962C385.792 97.6373 385.41 96.7313 385.41 95.5857C385.41 94.4401 385.897 93.4667 386.877 92.718C387.858 91.9692 389.13 91.5948 390.702 91.5948C392.409 91.5948 393.778 91.9992 394.811 92.8153C395.844 93.6315 396.361 94.7321 396.361 96.1098H395.56C395.56 95.0466 395.111 94.1631 394.212 93.4518C393.314 92.7404 392.147 92.381 390.702 92.381C389.257 92.381 388.225 92.6805 387.416 93.287C386.608 93.8935 386.204 94.6498 386.204 95.5557C386.204 96.2671 386.353 96.8286 386.66 97.233C386.967 97.6373 387.454 98.0042 388.135 98.3261C388.816 98.6481 389.811 98.9701 391.114 99.2696C392.416 99.5691 393.449 99.9285 394.212 100.34C394.976 100.752 395.522 101.231 395.867 101.793C396.211 102.354 396.376 103.036 396.376 103.844C396.376 105.095 395.867 106.098 394.841 106.854C393.816 107.611 392.476 107.993 390.822 107.993C389.048 107.993 387.618 107.588 386.533 106.787C385.448 105.986 384.901 104.945 384.901 103.68H385.687C385.762 104.788 386.256 105.656 387.154 106.278C388.052 106.899 389.272 107.206 390.814 107.206C392.229 107.206 393.374 106.877 394.257 106.218C395.141 105.559 395.582 104.765 395.582 103.829Z" fill="white"/>
<path d="M411.323 107.7V105.14C410.859 106.016 410.17 106.712 409.28 107.221C408.389 107.73 407.251 107.993 405.874 107.993C404.152 107.993 402.858 107.491 401.989 106.48C401.121 105.469 400.687 104.002 400.664 102.07V91.8794H401.45V102.1C401.473 103.777 401.847 105.05 402.588 105.911C403.329 106.772 404.407 107.206 405.836 107.206C407.348 107.206 408.576 106.847 409.519 106.136C410.462 105.424 411.061 104.384 411.315 103.006V91.8794H412.116V107.7H411.315H411.323Z" fill="white"/>
<path d="M418.097 107.701H417.311V85.2379H418.097V107.701Z" fill="white"/>
<path d="M425.05 87.6115V91.8794H428.643V92.6656H425.05V103.904C425.05 105.027 425.23 105.859 425.597 106.39C425.963 106.922 426.577 107.199 427.43 107.199C427.857 107.199 428.381 107.154 428.995 107.064L429.129 107.813C428.808 107.933 428.254 107.985 427.475 107.985C426.323 107.985 425.499 107.663 425.005 107.027C424.511 106.39 424.257 105.379 424.242 104.002V92.6581H421.315V91.8719H424.242V87.604H425.043L425.05 87.6115Z" fill="white"/>
<path d="M431.262 99.4867C431.262 97.9742 431.554 96.619 432.131 95.4135C432.707 94.208 433.53 93.2721 434.586 92.5982C435.641 91.9243 436.839 91.5874 438.171 91.5874C439.503 91.5874 440.686 91.9168 441.741 92.5682C442.797 93.2196 443.612 94.1481 444.204 95.3461C444.795 96.5441 445.094 97.8994 445.102 99.3969V100.101C445.102 101.621 444.818 102.983 444.241 104.181C443.665 105.379 442.849 106.315 441.794 106.989C440.738 107.663 439.541 108 438.208 108C436.876 108 435.679 107.671 434.623 107.004C433.568 106.338 432.744 105.409 432.161 104.219C431.577 103.028 431.277 101.681 431.27 100.191V99.4867H431.262ZM432.056 100.101C432.056 101.418 432.318 102.624 432.834 103.717C433.351 104.81 434.084 105.671 435.012 106.285C435.94 106.899 437.011 107.206 438.208 107.206C440.012 107.206 441.479 106.525 442.617 105.177C443.755 103.829 444.324 102.077 444.324 99.9434V99.4867C444.324 98.1914 444.062 96.9934 443.538 95.8927C443.014 94.792 442.28 93.931 441.352 93.3095C440.424 92.688 439.369 92.381 438.186 92.381C436.382 92.381 434.908 93.0699 433.77 94.4401C432.632 95.8103 432.056 97.5474 432.056 99.629V100.093V100.101Z" fill="white"/>
<path d="M455.91 92.4634L454.885 92.3735C453.537 92.3735 452.415 92.8078 451.509 93.6839C450.603 94.5524 450.012 95.7729 449.728 97.3453V107.7H448.942V91.8794H449.728V95.1664C450.154 94.0657 450.798 93.1897 451.659 92.5458C452.52 91.9018 453.59 91.5799 454.892 91.5799C455.349 91.5799 455.723 91.6323 456 91.7446L455.91 92.4559V92.4634Z" fill="white"/>
</g>
<defs>
<linearGradient id="paint0_linear_6_3" x1="41.5111" y1="88.0008" x2="236.784" y2="88.0008" gradientUnits="userSpaceOnUse">
<stop offset="0.02" stop-color="#D62700"/>
<stop offset="0.17" stop-color="#A15A00"/>
<stop offset="0.31" stop-color="#758600"/>
<stop offset="0.45" stop-color="#51A800"/>
<stop offset="0.58" stop-color="#38C100"/>
<stop offset="0.7" stop-color="#29D000"/>
<stop offset="0.79" stop-color="#24D600"/>
</linearGradient>
<clipPath id="clip0_6_3">
<rect width="456" height="180" fill="white"/>
</clipPath>
</defs>
</svg>
