<?xml version="1.0" encoding="utf-8"?>
<!-- Generator: Adobe Illustrator 28.2.0, SVG Export Plug-In . SVG Version: 6.00 Build 0)  -->
<svg version="1.1" id="Layer_1" xmlns="http://www.w3.org/2000/svg" xmlns:xlink="http://www.w3.org/1999/xlink" x="0px" y="0px"
	 viewBox="0 0 762 479" style="enable-background:new 0 0 762 479;" xml:space="preserve">
<style type="text/css">
	.st0{fill:#090084;}
	.st1{fill:url(#SVGID_1_);}
	.st2{enable-background:new    ;}
</style>
<path class="st0" d="M294.7,254.7c-6.7,33.2-30.2,62-62.6,73.4c-39.4,13.9-82.8,1.7-109.5-30.6c-25.8-31.2-28.5-77.6-7.4-112.3
	c20.4-33.6,60.7-52.1,99.2-45.8c0.3-0.2,6.4-4.5,6.1-12c-0.3-6.7-5.5-10.3-6.1-10.7c-10.8-1.3-33.3-2.6-59.1,7.3
	c-18.7,7.2-35.7,19-48.6,34.7c-32.4,39.2-37.5,95.8-10.9,139.6c26.3,43.3,77.7,65.4,127.3,55.6c47.9-9.5,87-50,94.4-98.2
	c0-0.3,0.1-0.6,0.1-0.9H294.7z"/>
<linearGradient id="SVGID_1_" gradientUnits="userSpaceOnUse" x1="134.12" y1="246.705" x2="395.0025" y2="246.705" gradientTransform="matrix(1 0 0 -1 0 480)">
	<stop  offset="2.000000e-02" style="stop-color:#9E1D00"/>
	<stop  offset="0.14" style="stop-color:#934416"/>
	<stop  offset="0.29" style="stop-color:#867031"/>
	<stop  offset="0.43" style="stop-color:#7C9446"/>
	<stop  offset="0.57" style="stop-color:#75AD54"/>
	<stop  offset="0.69" style="stop-color:#71BC5D"/>
	<stop  offset="0.79" style="stop-color:#70C261"/>
</linearGradient>
<path class="st1" d="M391.4,248.2h-47.8c-12.6,0-25.3,0.3-38-0.1c-8.7-0.3-17.2-1.4-25.5-3.9c-5.2-1.6-10.3-3.5-15.7-4.1
	c-6.3-0.8-11.6,0.7-16.6,3c-1.4-1.2-3.2-1.9-5.1-1.9c-4.5,0-8.1,3.6-8.1,8.1c0,0.5,0.1,1,0.1,1.5c-3.3,2-6.7,3.9-10.4,5.3
	c-5.8,2.2-13.9,4.4-19.2,0.2c-4.5-3.5-7.3-9.3-9.6-14.4c-1.4-3.1-3.4-9.4-6.1-16.3c1.2-1.4,1.9-3.2,1.9-5.2c0-4.3-3.4-7.9-7.7-8.1
	c-2.8-5.4-6-10.3-9.6-13.1c-0.8-3.6-4-6.4-7.9-6.4c-4.5,0-8.1,3.6-8.1,8.1c0,0.1,0,0.1,0,0.1c-9.3,9.1-12.1,25.4-14.5,37.6
	c-1.2,6.2-2.2,12.4-3,18.7c-3.7,0.8-6.4,4-6.4,7.9c0,4.5,3.6,8.1,8.1,8.1s8.1-3.6,8.1-8.1c0-2.3-1-4.4-2.5-5.8c0.6-5,1.4-10,2.2-15
	c2.1-11.6,4.3-24.6,10.7-34.8c0.4-0.6,0.8-1.2,1.2-1.8c1.2,0.7,2.6,1.1,4.1,1.1c2.1,0,4.1-0.8,5.5-2.2c2.1,2.2,3.6,5.5,4.7,7.8
	c0.1,0.3,0.3,0.6,0.4,0.9c-1,1.4-1.6,3.1-1.6,4.9c0,4.1,3.1,7.5,7,8c2.7,7.3,5.3,14.6,8.9,21.5c2.5,4.8,5.6,9.5,10,12.8
	c5.3,3.9,11.3,3.8,17.6,2.8c7.5-1.3,14.2-4.8,20.6-8.8c1,0.5,2.2,0.8,3.4,0.8c4.4,0,7.9-3.5,8.1-7.8c3-1.4,6.1-2.4,9.6-2.4
	c5.1,0.1,9.9,1.7,14.7,3.2c6.8,2.1,13.5,3.6,20.6,4.4c15.4,1.7,31.2,0.8,46.6,0.8h49.2C396.2,255.7,396.2,248.2,391.4,248.2
	L391.4,248.2z"/>
<g class="st2">
	<path class="st0" d="M328.6,164.3h4.8v40c0,5.4-1.6,9.7-4.7,12.9c-3.1,3.2-7.3,4.8-12.5,4.8c-5.5,0-9.8-1.4-12.7-4.3
		s-4.5-6.9-4.5-12.1h4.8c0,4.1,1.1,7.2,3.2,9.3c2.2,2.1,5.2,3.1,9.1,3.1c3.6,0,6.6-1.2,8.8-3.6c2.3-2.4,3.4-5.7,3.5-9.8V164.3z"/>
	<path class="st0" d="M343.9,199.4c0-4.1,0.8-7.7,2.4-11c1.6-3.3,3.8-5.8,6.7-7.6c2.9-1.8,6.1-2.7,9.8-2.7c5.6,0,10.2,2,13.7,5.9
		c3.5,3.9,5.2,9.2,5.2,15.7v1c0,4.1-0.8,7.8-2.4,11c-1.6,3.3-3.8,5.8-6.7,7.6c-2.9,1.8-6.1,2.7-9.8,2.7c-5.6,0-10.2-2-13.7-5.9
		c-3.5-3.9-5.3-9.2-5.3-15.7V199.4z M348.5,200.7c0,5.1,1.3,9.2,3.9,12.4s6,4.9,10.3,4.9c4.2,0,7.6-1.6,10.3-4.9s3.9-7.5,3.9-12.8
		v-0.9c0-3.2-0.6-6.2-1.8-8.9c-1.2-2.7-2.9-4.8-5-6.2c-2.2-1.5-4.6-2.2-7.4-2.2c-4.2,0-7.6,1.6-10.2,4.9c-2.6,3.3-3.9,7.5-3.9,12.8
		V200.7z"/>
	<path class="st0" d="M416.6,210.4c0-2.3-0.9-4.2-2.8-5.6c-1.9-1.4-4.7-2.5-8.4-3.3c-3.8-0.8-6.7-1.7-8.7-2.7
		c-2.1-1-3.6-2.3-4.6-3.8c-1-1.5-1.5-3.3-1.5-5.4c0-3.3,1.4-6.1,4.2-8.3c2.8-2.2,6.4-3.3,10.7-3.3c4.7,0,8.5,1.2,11.3,3.5
		c2.9,2.3,4.3,5.4,4.3,9.1h-4.7c0-2.5-1-4.5-3.1-6.2s-4.7-2.5-7.8-2.5c-3.1,0-5.5,0.7-7.4,2.1c-1.9,1.4-2.8,3.1-2.8,5.3
		c0,2.1,0.8,3.7,2.3,4.9c1.5,1.2,4.4,2.2,8.5,3.2c4.1,1,7.2,2,9.2,3.1c2,1.1,3.6,2.4,4.6,3.9c1,1.5,1.5,3.4,1.5,5.6
		c0,3.6-1.4,6.4-4.3,8.6c-2.9,2.1-6.6,3.2-11.3,3.2c-4.9,0-8.9-1.2-12-3.6c-3.1-2.4-4.6-5.4-4.6-9h4.7c0.2,2.7,1.3,4.9,3.5,6.4
		c2.1,1.5,4.9,2.3,8.4,2.3c3.3,0,5.9-0.7,7.9-2.1C415.6,214.4,416.6,212.6,416.6,210.4z"/>
	<path class="st0" d="M448.1,221.9c-3.6,0-6.8-0.9-9.7-2.7c-2.9-1.8-5.2-4.2-6.8-7.4c-1.6-3.2-2.4-6.7-2.4-10.6v-1.7
		c0-4.1,0.8-7.7,2.4-11c1.6-3.3,3.8-5.8,6.6-7.7c2.8-1.9,5.9-2.8,9.1-2.8c5.1,0,9.2,1.8,12.2,5.3c3,3.5,4.5,8.3,4.5,14.4v2.6h-30.2
		v0.9c0,4.8,1.4,8.8,4.1,12c2.7,3.2,6.2,4.8,10.4,4.8c2.5,0,4.7-0.5,6.6-1.4c1.9-0.9,3.7-2.4,5.2-4.4l2.9,2.2
		C459.6,219.5,454.7,221.9,448.1,221.9z M447.3,182.1c-3.5,0-6.5,1.3-8.9,3.9c-2.4,2.6-3.9,6-4.4,10.4h25.4v-0.5
		c-0.1-4.1-1.3-7.4-3.5-9.9C453.7,183.4,450.8,182.1,447.3,182.1z M452.5,161.2h5.7l-9,10.9l-4.1,0L452.5,161.2z"/>
	<path class="st0" d="M525,194.6h-26.5v26.6h-4.8v-56.9h35.2v4.1h-30.4v22.1H525V194.6z"/>
	<path class="st0" d="M553.9,221.9c-3.6,0-6.8-0.9-9.7-2.7c-2.9-1.8-5.2-4.2-6.8-7.4c-1.6-3.2-2.4-6.7-2.4-10.6v-1.7
		c0-4.1,0.8-7.7,2.4-11c1.6-3.3,3.8-5.8,6.6-7.7c2.8-1.9,5.9-2.8,9.1-2.8c5.1,0,9.2,1.8,12.2,5.3c3,3.5,4.5,8.3,4.5,14.4v2.6h-30.2
		v0.9c0,4.8,1.4,8.8,4.1,12c2.7,3.2,6.2,4.8,10.4,4.8c2.5,0,4.7-0.5,6.6-1.4c1.9-0.9,3.7-2.4,5.2-4.4l2.9,2.2
		C565.4,219.5,560.4,221.9,553.9,221.9z M553,182.1c-3.5,0-6.5,1.3-8.9,3.9c-2.4,2.6-3.9,6-4.4,10.4h25.4v-0.5
		c-0.1-4.1-1.3-7.4-3.5-9.9C559.4,183.4,556.6,182.1,553,182.1z"/>
	<path class="st0" d="M598.4,182.9c-1-0.2-2-0.3-3.2-0.3c-2.9,0-5.4,0.8-7.4,2.4c-2,1.6-3.5,4-4.3,7.1v29h-4.6v-42.3h4.6l0.1,6.7
		c2.5-5,6.4-7.5,11.9-7.5c1.3,0,2.3,0.2,3.1,0.5L598.4,182.9z"/>
	<path class="st0" d="M610,178.9l0.2,6.9c1.6-2.6,3.5-4.5,5.9-5.7c2.3-1.3,4.9-1.9,7.8-1.9c6.7,0,10.9,2.7,12.7,8.2
		c1.5-2.6,3.5-4.7,6.1-6.1c2.5-1.4,5.3-2.1,8.4-2.1c9.1,0,13.7,4.9,13.9,14.8v28.2h-4.7v-27.9c0-3.8-0.8-6.6-2.4-8.4
		c-1.6-1.8-4.2-2.7-7.8-2.7c-3.4,0.1-6.2,1.1-8.5,3.3c-2.3,2.1-3.6,4.7-3.9,7.8v28h-4.7V193c0-3.6-0.9-6.3-2.6-8.1
		c-1.7-1.8-4.3-2.7-7.8-2.7c-2.9,0-5.5,0.8-7.6,2.5s-3.7,4.2-4.7,7.5v29h-4.7v-42.3H610z"/>
	<path class="st0" d="M676.4,166.7c0-0.9,0.3-1.6,0.9-2.2c0.6-0.6,1.4-0.9,2.3-0.9c1,0,1.8,0.3,2.4,0.9c0.6,0.6,0.9,1.4,0.9,2.2
		s-0.3,1.6-0.9,2.2s-1.4,0.9-2.4,0.9c-1,0-1.8-0.3-2.3-0.9C676.7,168.3,676.4,167.6,676.4,166.7z M681.9,221.2h-4.7v-42.3h4.7V221.2
		z"/>
</g>
<g class="st2">
	<path d="M544.2,250.9c-0.3,2.9-1.3,5.2-3,6.7c-1.7,1.6-4.1,2.4-7.1,2.4c-2,0-3.8-0.5-5.4-1.5c-1.6-1-2.8-2.5-3.6-4.4
		s-1.3-4-1.3-6.5v-4.4c0-2.4,0.4-4.6,1.3-6.5c0.8-1.9,2.1-3.4,3.6-4.4c1.6-1,3.4-1.6,5.4-1.6c3,0,5.3,0.8,7.1,2.3s2.8,3.8,3,6.7
		h-1.1c-0.3-2.6-1.2-4.6-2.7-6s-3.6-2-6.3-2c-2.8,0-5,1-6.7,3.1s-2.5,4.9-2.5,8.4v4.2c0,2.2,0.4,4.2,1.1,5.9c0.8,1.7,1.8,3.1,3.3,4
		c1.4,1,3,1.4,4.9,1.4c2.7,0,4.8-0.7,6.4-2c1.5-1.3,2.4-3.4,2.7-6H544.2z"/>
	<path d="M548.7,248.7c0-2,0.4-3.8,1.2-5.4c0.8-1.6,1.9-2.9,3.3-3.8c1.4-0.9,3-1.3,4.8-1.3c1.8,0,3.4,0.4,4.8,1.3s2.5,2.1,3.3,3.7
		c0.8,1.6,1.2,3.4,1.2,5.4v0.9c0,2-0.4,3.8-1.2,5.4c-0.8,1.6-1.9,2.9-3.3,3.8c-1.4,0.9-3,1.3-4.8,1.3c-1.8,0-3.4-0.4-4.8-1.3
		c-1.4-0.9-2.5-2.1-3.3-3.7s-1.2-3.4-1.2-5.4V248.7z M549.7,249.5c0,1.8,0.3,3.4,1,4.8c0.7,1.5,1.7,2.6,2.9,3.4
		c1.2,0.8,2.7,1.2,4.3,1.2c2.4,0,4.4-0.9,5.9-2.7c1.5-1.8,2.3-4.1,2.3-7v-0.6c0-1.7-0.4-3.3-1.1-4.8s-1.7-2.6-2.9-3.4
		c-1.2-0.8-2.7-1.2-4.2-1.2c-2.4,0-4.4,0.9-5.9,2.8s-2.3,4.1-2.3,6.9V249.5z"/>
	<path d="M573.3,243.4c0.7-1.6,1.7-2.9,3-3.9c1.3-1,2.8-1.4,4.5-1.4c2.3,0,3.9,0.6,5,1.9c1.1,1.3,1.7,3.2,1.7,5.8v13.8h-1.1v-13.8
		c0-2.3-0.5-3.9-1.4-5c-0.9-1.1-2.4-1.6-4.3-1.6c-1.8,0-3.4,0.6-4.7,1.9c-1.3,1.3-2.2,3-2.7,5v13.5h-1.1v-21.1h1.1V243.4z"/>
	<path d="M607.2,254.5c0-2.6-2.2-4.3-6.6-5.2c-2.6-0.6-4.5-1.3-5.5-2.2c-1-0.9-1.5-2.1-1.5-3.6c0-1.5,0.7-2.8,2-3.8s3-1.5,5.1-1.5
		c2.3,0,4.1,0.5,5.5,1.6c1.4,1.1,2.1,2.6,2.1,4.4h-1.1c0-1.4-0.6-2.6-1.8-3.6c-1.2-1-2.8-1.4-4.7-1.4c-1.8,0-3.3,0.4-4.4,1.2
		c-1.1,0.8-1.6,1.8-1.6,3c0,1,0.2,1.7,0.6,2.2c0.4,0.5,1.1,1,2,1.5c0.9,0.4,2.2,0.9,4,1.3c1.7,0.4,3.1,0.9,4.1,1.4s1.8,1.2,2.2,1.9
		c0.5,0.7,0.7,1.7,0.7,2.7c0,1.7-0.7,3-2.1,4s-3.2,1.5-5.4,1.5c-2.4,0-4.3-0.5-5.7-1.6c-1.5-1.1-2.2-2.5-2.2-4.2h1.1
		c0.1,1.5,0.8,2.6,2,3.5c1.2,0.8,2.8,1.2,4.9,1.2c1.9,0,3.4-0.4,4.6-1.3C606.6,256.8,607.2,255.7,607.2,254.5z"/>
	<path d="M628.2,259.6v-3.4c-0.6,1.2-1.5,2.1-2.7,2.8c-1.2,0.7-2.7,1-4.6,1c-2.3,0-4-0.7-5.2-2s-1.7-3.3-1.8-5.9v-13.6h1.1v13.7
		c0,2.2,0.5,3.9,1.5,5.1c1,1.2,2.4,1.7,4.3,1.7c2,0,3.7-0.5,4.9-1.4c1.3-1,2.1-2.3,2.4-4.2v-14.9h1.1v21.1H628.2z"/>
	<path d="M637.3,259.6h-1.1v-30h1.1V259.6z"/>
</g>
<g class="st2">
	<path d="M646.6,232.8v5.7h4.8v1.1h-4.8v15c0,1.5,0.2,2.6,0.7,3.3s1.3,1.1,2.5,1.1c0.6,0,1.3-0.1,2.1-0.2l0.2,1
		c-0.4,0.2-1.2,0.2-2.2,0.2c-1.5,0-2.6-0.4-3.3-1.3s-1-2.2-1-4v-15.2h-3.9v-1.1h3.9v-5.7H646.6z"/>
</g>
<g class="st2">
	<path d="M654.9,248.7c0-2,0.4-3.8,1.2-5.4c0.8-1.6,1.9-2.9,3.3-3.8c1.4-0.9,3-1.3,4.8-1.3c1.8,0,3.4,0.4,4.8,1.3s2.5,2.1,3.3,3.7
		c0.8,1.6,1.2,3.4,1.2,5.4v0.9c0,2-0.4,3.8-1.2,5.4c-0.8,1.6-1.9,2.9-3.3,3.8c-1.4,0.9-3,1.3-4.8,1.3c-1.8,0-3.4-0.4-4.8-1.3
		c-1.4-0.9-2.5-2.1-3.3-3.7s-1.2-3.4-1.2-5.4V248.7z M655.9,249.5c0,1.8,0.3,3.4,1,4.8c0.7,1.5,1.7,2.6,2.9,3.4
		c1.2,0.8,2.7,1.2,4.3,1.2c2.4,0,4.4-0.9,5.9-2.7c1.5-1.8,2.3-4.1,2.3-7v-0.6c0-1.7-0.4-3.3-1.1-4.8s-1.7-2.6-2.9-3.4
		c-1.2-0.8-2.7-1.2-4.2-1.2c-2.4,0-4.4,0.9-5.9,2.8s-2.3,4.1-2.3,6.9V249.5z"/>
	<path d="M687.8,239.3l-1.4-0.1c-1.8,0-3.3,0.6-4.5,1.7c-1.2,1.2-2,2.8-2.4,4.9v13.8h-1.1v-21.1h1.1v4.4c0.6-1.5,1.4-2.6,2.6-3.5
		c1.1-0.9,2.6-1.3,4.3-1.3c0.6,0,1.1,0.1,1.5,0.2L687.8,239.3z"/>
</g>
</svg>
