<?xml version="1.0" encoding="utf-8"?>
<!-- Generator: Adobe Illustrator 28.2.0, SVG Export Plug-In . SVG Version: 6.00 Build 0)  -->
<svg version="1.1" id="Layer_1" xmlns="http://www.w3.org/2000/svg" xmlns:xlink="http://www.w3.org/1999/xlink" x="0px" y="0px"
	 viewBox="0 0 762 479" style="enable-background:new 0 0 762 479;" xml:space="preserve">
<style type="text/css">
	.st0{enable-background:new    ;}
	.st1{fill:#090084;}
</style>
<g class="st0">
	<path class="st1" d="M100.6,183.6h8v66.4c0,9-2.6,16.1-7.8,21.4c-5.2,5.3-12.1,8-20.8,8c-9.2,0-16.2-2.4-21.1-7.2
		c-4.9-4.8-7.4-11.5-7.4-20.1h8c0,6.8,1.8,12,5.4,15.4c3.6,3.4,8.6,5.2,15.2,5.2c6,0,10.9-2,14.7-6c3.8-4,5.7-9.4,5.8-16.2V183.6z"
		/>
	<path class="st1" d="M125.9,241.9c0-6.7,1.3-12.8,3.9-18.2c2.6-5.4,6.3-9.6,11.1-12.6c4.8-3,10.2-4.5,16.2-4.5
		c9.3,0,16.9,3.3,22.7,9.8c5.8,6.6,8.7,15.2,8.7,26v1.6c0,6.8-1.3,12.9-3.9,18.3c-2.6,5.4-6.3,9.6-11.1,12.6
		c-4.8,2.9-10.2,4.4-16.3,4.4c-9.3,0-16.9-3.3-22.7-9.8c-5.8-6.6-8.7-15.2-8.7-26V241.9z M133.7,244c0,8.4,2.2,15.3,6.5,20.7
		c4.3,5.4,10,8.1,17.1,8.1c7,0,12.7-2.7,17-8.1c4.3-5.4,6.5-12.5,6.5-21.3v-1.5c0-5.4-1-10.3-3-14.7c-2-4.5-4.8-7.9-8.4-10.3
		c-3.6-2.4-7.7-3.7-12.3-3.7c-6.9,0-12.6,2.7-16.9,8.1c-4.4,5.4-6.6,12.5-6.6,21.3V244z"/>
	<path class="st1" d="M246.6,260.2c0-3.8-1.5-6.9-4.6-9.3c-3.1-2.3-7.8-4.2-14-5.5c-6.2-1.3-11.1-2.8-14.5-4.5
		c-3.4-1.7-6-3.8-7.7-6.3c-1.7-2.5-2.5-5.4-2.5-9c0-5.5,2.3-10.1,6.9-13.7c4.6-3.6,10.6-5.4,17.8-5.4c7.8,0,14.1,1.9,18.8,5.8
		s7.1,8.9,7.1,15.1h-7.8c0-4.1-1.7-7.5-5.2-10.2s-7.8-4.1-13-4.1c-5.1,0-9.2,1.1-12.3,3.4c-3.1,2.3-4.6,5.2-4.6,8.9
		c0,3.5,1.3,6.2,3.9,8.1c2.6,1.9,7.3,3.7,14.1,5.3c6.8,1.6,11.9,3.3,15.3,5.1c3.4,1.8,5.9,4,7.6,6.6c1.6,2.6,2.5,5.6,2.5,9.3
		c0,5.9-2.4,10.7-7.2,14.2c-4.8,3.5-11,5.3-18.7,5.3c-8.2,0-14.8-2-19.9-5.9c-5.1-4-7.6-9-7.6-15h7.8c0.3,4.5,2.2,8.1,5.7,10.6
		c3.5,2.5,8.2,3.8,14,3.8c5.4,0,9.8-1.2,13.1-3.6C245,266.8,246.6,263.8,246.6,260.2z"/>
	<path class="st1" d="M299,279.3c-6,0-11.4-1.5-16.2-4.4c-4.8-2.9-8.6-7-11.3-12.3c-2.7-5.3-4-11.1-4-17.7v-2.8
		c0-6.7,1.3-12.8,3.9-18.2c2.6-5.4,6.3-9.7,10.9-12.7c4.7-3.1,9.7-4.6,15.2-4.6c8.5,0,15.3,2.9,20.3,8.7c5,5.8,7.5,13.8,7.5,23.8
		v4.3h-50.1v1.5c0,8,2.3,14.6,6.8,19.9c4.6,5.3,10.3,7.9,17.2,7.9c4.2,0,7.8-0.8,11-2.3s6.1-3.9,8.7-7.3l4.9,3.7
		C318.2,275.2,309.9,279.3,299,279.3z M297.6,213.1c-5.8,0-10.8,2.1-14.8,6.4c-4,4.3-6.4,10-7.3,17.3h42.1V236
		c-0.2-6.7-2.1-12.2-5.8-16.5S303.5,213.1,297.6,213.1z M306.2,178.4h9.4l-15,18.2l-6.8,0L306.2,178.4z"/>
	<path class="st1" d="M426.6,233.8h-44V278h-8v-94.4h58.5v6.7h-50.5v36.8h44V233.8z"/>
	<path class="st1" d="M474.7,279.3c-6,0-11.4-1.5-16.2-4.4c-4.8-2.9-8.6-7-11.3-12.3c-2.7-5.3-4-11.1-4-17.7v-2.8
		c0-6.7,1.3-12.8,3.9-18.2c2.6-5.4,6.3-9.7,10.9-12.7c4.7-3.1,9.7-4.6,15.2-4.6c8.5,0,15.3,2.9,20.3,8.7s7.5,13.8,7.5,23.8v4.3H451
		v1.5c0,8,2.3,14.6,6.8,19.9c4.6,5.3,10.3,7.9,17.2,7.9c4.2,0,7.8-0.8,11-2.3s6.1-3.9,8.7-7.3l4.9,3.7
		C493.8,275.2,485.6,279.3,474.7,279.3z M473.3,213.1c-5.8,0-10.8,2.1-14.8,6.4c-4,4.3-6.4,10-7.3,17.3h42.1V236
		c-0.2-6.7-2.1-12.2-5.8-16.5S479.2,213.1,473.3,213.1z"/>
	<path class="st1" d="M548.6,214.4c-1.6-0.3-3.4-0.5-5.3-0.5c-4.8,0-8.9,1.4-12.3,4.1c-3.4,2.7-5.7,6.6-7.2,11.8V278h-7.7v-70.2h7.6
		l0.1,11.2c4.1-8.3,10.7-12.5,19.8-12.5c2.2,0,3.9,0.3,5.1,0.8L548.6,214.4z"/>
	<path class="st1" d="M567.9,207.8l0.3,11.4c2.6-4.2,5.8-7.4,9.7-9.5c3.9-2.1,8.2-3.2,13-3.2c11.1,0,18.1,4.5,21.1,13.6
		c2.5-4.4,5.9-7.7,10.1-10.1c4.2-2.4,8.8-3.5,13.9-3.5c15,0,22.7,8.2,23,24.6V278h-7.8v-46.3c0-6.3-1.4-10.9-4.1-13.9
		c-2.7-3-7-4.5-13-4.5c-5.6,0.1-10.3,1.9-14.1,5.4c-3.8,3.5-6,7.8-6.4,12.9V278h-7.8v-46.8c0-6-1.5-10.5-4.2-13.5
		c-2.8-3-7.1-4.4-12.9-4.4c-4.9,0-9.1,1.4-12.6,4.2c-3.5,2.8-6.1,6.9-7.8,12.4V278h-7.8v-70.2H567.9z"/>
	<path class="st1" d="M678.1,187.5c0-1.5,0.5-2.7,1.4-3.7c1-1,2.2-1.5,3.9-1.5s3,0.5,3.9,1.5c1,1,1.5,2.2,1.5,3.7
		c0,1.5-0.5,2.7-1.5,3.7c-1,1-2.3,1.5-3.9,1.5s-2.9-0.5-3.9-1.5C678.6,190.2,678.1,189,678.1,187.5z M687.3,278h-7.8v-70.2h7.8V278z
		"/>
</g>
<g class="st0">
	<path d="M442.1,323.8c-0.5,5.2-2.3,9.2-5.4,12c-3.1,2.8-7.3,4.2-12.6,4.2c-3.6,0-6.8-0.9-9.5-2.7c-2.8-1.8-4.9-4.4-6.4-7.7
		s-2.3-7.2-2.3-11.5v-7.8c0-4.3,0.8-8.1,2.3-11.5c1.5-3.4,3.6-6,6.4-7.9c2.8-1.8,6-2.8,9.6-2.8c5.3,0,9.5,1.4,12.6,4.2
		s4.9,6.7,5.4,11.9h-1.9c-0.5-4.6-2.1-8.2-4.9-10.6s-6.5-3.6-11.3-3.6c-4.9,0-8.9,1.8-11.9,5.5c-3,3.7-4.5,8.7-4.5,14.9v7.4
		c0,4,0.7,7.5,2,10.6c1.3,3.1,3.3,5.4,5.8,7.2c2.5,1.7,5.4,2.6,8.6,2.6c4.8,0,8.6-1.2,11.3-3.6c2.7-2.4,4.3-6,4.8-10.7H442.1z"/>
	<path d="M450,319.8c0-3.6,0.7-6.8,2.1-9.7c1.4-2.9,3.3-5.1,5.8-6.7c2.5-1.6,5.3-2.4,8.5-2.4c3.1,0,6,0.8,8.5,2.3
		c2.5,1.5,4.4,3.7,5.8,6.6c1.4,2.8,2.1,6,2.1,9.6v1.7c0,3.6-0.7,6.8-2,9.7c-1.4,2.8-3.3,5.1-5.8,6.7c-2.5,1.6-5.3,2.4-8.5,2.4
		s-6-0.8-8.5-2.4c-2.5-1.6-4.5-3.8-5.8-6.6c-1.4-2.8-2.1-6-2.1-9.6V319.8z M451.9,321.3c0,3.1,0.6,6,1.9,8.6c1.2,2.6,3,4.6,5.2,6.1
		c2.2,1.5,4.7,2.2,7.6,2.2c4.3,0,7.8-1.6,10.5-4.8c2.7-3.2,4-7.3,4-12.4v-1.1c0-3.1-0.6-5.9-1.9-8.5c-1.2-2.6-3-4.7-5.2-6.1
		c-2.2-1.5-4.7-2.2-7.5-2.2c-4.3,0-7.8,1.6-10.5,4.9c-2.7,3.3-4.1,7.4-4.1,12.3V321.3z"/>
	<path d="M493.8,310.5c1.2-2.9,3-5.2,5.4-6.9c2.4-1.7,5-2.5,7.9-2.5c4,0,7,1.1,9,3.4s2.9,5.7,3,10.3v24.5h-1.9v-24.5
		c0-4-0.8-7-2.5-8.9c-1.6-1.9-4.2-2.9-7.7-2.9c-3.2,0-6,1.1-8.4,3.4s-4,5.3-4.8,8.9v24h-1.9v-37.5h1.9V310.5z"/>
	<path d="M553.9,330.1c0-4.6-3.9-7.6-11.6-9.3c-4.7-1-7.9-2.3-9.7-3.8c-1.8-1.6-2.7-3.7-2.7-6.4c0-2.8,1.2-5,3.5-6.8
		c2.3-1.8,5.3-2.7,9.1-2.7c4,0,7.3,1,9.7,2.9c2.4,1.9,3.7,4.5,3.7,7.8h-1.9c0-2.5-1.1-4.6-3.2-6.3c-2.1-1.7-4.9-2.5-8.3-2.5
		c-3.3,0-5.9,0.7-7.8,2.1c-1.9,1.4-2.9,3.2-2.9,5.4c0,1.7,0.4,3,1.1,4c0.7,1,1.9,1.8,3.5,2.6s4,1.5,7.1,2.2c3.1,0.7,5.5,1.6,7.3,2.5
		s3.1,2.1,3.9,3.4c0.8,1.3,1.2,3,1.2,4.9c0,3-1.2,5.3-3.6,7.1s-5.6,2.7-9.5,2.7c-4.2,0-7.6-1-10.2-2.9c-2.6-1.9-3.9-4.4-3.9-7.4h1.9
		c0.2,2.6,1.3,4.7,3.5,6.2c2.1,1.5,5,2.2,8.7,2.2c3.4,0,6.1-0.8,8.2-2.3C552.9,334.2,553.9,332.3,553.9,330.1z"/>
	<path d="M591.2,339.3v-6.1c-1.1,2.1-2.7,3.7-4.9,4.9c-2.1,1.2-4.8,1.8-8.1,1.8c-4.1,0-7.2-1.2-9.2-3.6c-2-2.4-3.1-5.9-3.1-10.5
		v-24.2h1.9V326c0,4,0.9,7,2.7,9c1.8,2,4.3,3.1,7.7,3.1c3.6,0,6.5-0.8,8.7-2.5c2.2-1.7,3.7-4.2,4.3-7.4v-26.4h1.9v37.5H591.2z"/>
	<path d="M607.3,339.3h-1.9v-53.2h1.9V339.3z"/>
</g>
<g class="st0">
	<path d="M623.8,291.7v10.1h8.5v1.9h-8.5v26.7c0,2.7,0.4,4.6,1.3,5.9c0.9,1.3,2.3,1.9,4.4,1.9c1,0,2.3-0.1,3.7-0.3l0.3,1.8
		c-0.8,0.3-2.1,0.4-3.9,0.4c-2.7,0-4.7-0.8-5.9-2.3s-1.8-3.9-1.8-7.2v-26.9H615v-1.9h6.9v-10.1H623.8z"/>
</g>
<g class="st0">
	<path d="M638.5,319.8c0-3.6,0.7-6.8,2.1-9.7c1.4-2.9,3.3-5.1,5.8-6.7c2.5-1.6,5.3-2.4,8.5-2.4c3.1,0,6,0.8,8.5,2.3
		c2.5,1.5,4.4,3.7,5.8,6.6c1.4,2.8,2.1,6,2.1,9.6v1.7c0,3.6-0.7,6.8-2,9.7c-1.4,2.8-3.3,5.1-5.8,6.7c-2.5,1.6-5.3,2.4-8.5,2.4
		s-6-0.8-8.5-2.4c-2.5-1.6-4.5-3.8-5.8-6.6c-1.4-2.8-2.1-6-2.1-9.6V319.8z M640.4,321.3c0,3.1,0.6,6,1.9,8.6c1.2,2.6,3,4.6,5.2,6.1
		c2.2,1.5,4.7,2.2,7.6,2.2c4.3,0,7.8-1.6,10.5-4.8c2.7-3.2,4-7.3,4-12.4v-1.1c0-3.1-0.6-5.9-1.9-8.5c-1.2-2.6-3-4.7-5.2-6.1
		c-2.2-1.5-4.7-2.2-7.5-2.2c-4.3,0-7.8,1.6-10.5,4.9c-2.7,3.3-4.1,7.4-4.1,12.3V321.3z"/>
	<path d="M697,303.2l-2.4-0.2c-3.2,0-5.9,1-8,3.1c-2.1,2.1-3.6,5-4.2,8.7v24.6h-1.9v-37.5h1.9v7.8c1-2.6,2.5-4.7,4.6-6.2
		s4.6-2.3,7.7-2.3c1.1,0,2,0.1,2.6,0.4L697,303.2z"/>
</g>
</svg>
